<svg width="630" height="889" viewBox="0 0 630 889" fill="none" xmlns="http://www.w3.org/2000/svg">
<path d="M315.79 888.77H313.69C313.07 888.03 312.13 888.05 311.32 887.82C293.853 882.953 276.377 878.1 258.89 873.26C193.85 855.2 128.813 837.13 63.7801 819.05C57.6101 817.34 57.7801 817.37 57.2001 810.88C56.0001 796.25 54.6601 781.63 53.3601 767C51.8601 750.2 50.3534 733.407 48.8401 716.62C47.5067 701.987 46.2134 687.363 44.9601 672.75C43.4601 655.963 41.9534 639.17 40.4401 622.37C39.1467 607.83 37.8634 593.293 36.5901 578.76C35.0767 561.88 33.5634 545 32.0501 528.12C30.7634 513.58 29.4767 499.043 28.1901 484.51C26.6767 467.543 25.1601 450.573 23.6401 433.6C22.3601 419.24 21.0867 404.88 19.8201 390.52L15.2601 339.62C13.9601 325.087 12.6701 310.547 11.3901 296C9.89006 279.213 8.38339 262.42 6.87006 245.62C5.72339 232.753 4.56673 219.88 3.40006 207C2.50006 197 1.62006 187 0.68006 177C0.55006 175.63 0.89006 175 2.32006 175.2C3.01962 175.235 3.7205 175.235 4.42006 175.2H625.61C626.133 175.24 626.657 175.24 627.18 175.2C629.07 174.91 629.52 175.67 629.34 177.52C627.94 192.133 626.607 206.75 625.34 221.37C622.88 248.777 620.433 276.19 618 303.61C615.373 333.023 612.747 362.437 610.12 391.85C607.68 419.263 605.237 446.677 602.79 474.09C600.163 503.503 597.54 532.917 594.92 562.33C592.473 589.75 590.027 617.163 587.58 644.57C584.953 673.99 582.33 703.407 579.71 732.82C577.237 760.22 574.797 787.613 572.39 815C572.24 816.79 571.69 817.49 569.97 818C545.59 824.713 521.22 831.467 496.86 838.26C442.32 853.38 387.78 868.503 333.24 883.63C327.4 885.26 321.44 886.49 315.79 888.77ZM315.25 544.77C315.25 585.31 315.25 625.853 315.25 666.4C315.25 667.71 315.32 669.02 315.35 670.33L314.73 670.62C286.29 662.873 257.837 655.17 229.37 647.51C227.72 647.06 226.86 646.51 226.72 644.63C226.05 636.01 225.28 627.4 224.51 618.78C223.51 607.78 222.51 596.86 221.51 585.89C221.39 584.51 221.01 583.97 219.51 583.97C194.423 584.017 169.337 584.017 144.25 583.97C142.8 583.97 142.33 584.24 142.49 585.86C143.33 594.21 144.01 602.56 144.75 610.92C146.043 625.633 147.333 640.34 148.62 655.04C150.11 671.75 151.68 688.44 153.08 705.16C153.26 707.16 153.97 707.89 155.85 708.41C201.75 721.077 247.637 733.81 293.51 746.61C300.56 748.61 307.51 750.78 314.7 752.31L315.21 752.47C315.21 759.557 315.21 766.64 315.21 773.72C315.21 792.867 315.21 812.013 315.21 831.16C315.21 833.85 315.52 834.04 318.11 833.3C320.03 832.75 321.97 832.3 323.89 831.72L379.2 816.37L429.74 802.37L485.35 787C497.08 783.74 508.8 780.45 520.54 777.24C522.68 776.66 523.54 775.52 523.54 773.33C523.54 770.38 523.85 767.42 524.12 764.48C524.75 757.4 525.47 750.32 526.12 743.23C526.53 738.65 526.84 734.05 527.25 729.47C527.9 722.12 528.61 714.78 529.25 707.47C529.65 702.89 529.98 698.29 530.4 693.71C531.04 686.71 531.75 679.71 532.4 672.71C532.82 668.04 533.12 663.36 533.53 658.71C534.18 651.37 534.89 644.03 535.53 636.71C535.93 632.3 536.27 627.88 536.67 623.47C537.32 616.47 538.04 609.47 538.67 602.47C539.09 597.8 539.39 593.12 539.8 588.47C540.45 581.12 541.17 573.78 541.8 566.47C542.21 561.89 542.53 557.29 542.95 552.71C543.59 545.62 544.31 538.54 544.95 531.46C545.36 526.87 545.67 522.28 546.07 517.69C546.73 510.35 547.43 503 548.07 495.69C548.47 491.28 548.8 486.86 549.21 482.45C549.86 475.45 550.57 468.45 551.21 461.45C551.63 456.78 551.92 452.1 552.33 447.45C552.99 440.01 553.69 432.58 554.33 425.15C554.72 420.82 555.07 416.5 555.47 412.15C556.13 404.89 556.83 397.64 557.47 390.38C557.88 385.79 558.11 381.19 558.61 376.61C559.437 369.19 560.103 361.76 560.61 354.32C560.92 349.99 561.32 345.66 561.73 341.32C562.38 334.41 563.11 327.51 563.73 320.59C564.16 315.84 564.42 311.06 564.86 306.31C565.67 297.58 566.61 288.87 567.4 280.14C568.02 273.22 568.33 266.27 569.05 259.36C570.05 249.69 570.84 240 571.72 230.36C571.95 227.86 571.07 227.92 569.3 227.92C485.573 227.92 401.84 227.92 318.1 227.92C315.59 227.92 315.1 228.73 315.1 231.04C315.17 256.22 315.1 281.41 315.1 306.59L314.6 306.76C313.46 306.76 312.33 306.68 311.19 306.68H121.57C117.7 306.68 117.7 306.68 117.99 310.38C118.07 311.43 118.09 312.48 118.19 313.52C120.26 336.4 122.37 359.27 124.39 382.14C124.6 384.47 125.06 385.5 127.86 385.49C189.28 385.377 250.703 385.347 312.13 385.4C313 385.4 313.87 385.35 314.74 385.32L315.24 385.53V466L314.74 466.21C314.04 466.21 313.35 466.13 312.65 466.13H134.39C134.057 466.148 133.723 466.148 133.39 466.13C132.05 465.99 131.82 466.6 131.94 467.84C132.67 475.49 133.32 483.15 134.01 490.84C135.53 507.84 137.13 524.76 138.52 541.73C138.73 544.31 139.43 544.99 142.04 544.99C198.76 544.91 255.473 544.887 312.18 544.92C313.05 544.92 313.92 544.92 314.79 544.84L315.25 544.77Z" fill="#264DE3"/>
<path d="M315.25 306.35C315.25 281.17 315.25 255.98 315.25 230.8C315.25 228.49 315.74 227.68 318.25 227.68C401.983 227.746 485.717 227.746 569.45 227.68C571.22 227.68 572.1 227.62 571.87 230.12C570.99 239.8 570.2 249.49 569.2 259.12C568.48 266.03 568.2 272.98 567.55 279.9C566.76 288.63 565.82 297.34 565.01 306.07C564.57 310.82 564.31 315.6 563.88 320.35C563.26 327.27 562.53 334.17 561.88 341.08C561.47 345.4 561.07 349.73 560.76 354.08C560.233 361.52 559.567 368.95 558.76 376.37C558.26 380.95 558.03 385.55 557.62 390.14C556.98 397.4 556.28 404.65 555.62 411.91C555.22 416.24 554.87 420.56 554.48 424.91C553.81 432.34 553.11 439.77 552.48 447.21C552.07 451.88 551.78 456.56 551.36 461.21C550.72 468.21 550.01 475.21 549.36 482.21C548.95 486.62 548.62 491.04 548.22 495.45C547.55 502.79 546.85 510.14 546.22 517.45C545.82 522.04 545.51 526.63 545.1 531.22C544.46 538.3 543.74 545.38 543.1 552.47C542.68 557.05 542.36 561.65 541.95 566.23C541.3 573.58 540.58 580.92 539.95 588.23C539.54 592.9 539.24 597.58 538.82 602.23C538.19 609.23 537.47 616.23 536.82 623.23C536.42 627.64 536.08 632.06 535.68 636.47C535.02 643.82 534.31 651.16 533.68 658.47C533.27 663.15 532.97 667.83 532.55 672.47C531.91 679.47 531.2 686.47 530.55 693.47C530.13 698.05 529.8 702.65 529.4 707.23C528.74 714.58 528.03 721.92 527.4 729.23C526.99 733.81 526.68 738.41 526.27 742.99C525.63 750.08 524.91 757.16 524.27 764.24C524 767.18 523.71 770.14 523.69 773.09C523.69 775.28 522.85 776.42 520.69 777C508.95 780.21 497.23 783.5 485.5 786.76L429.94 802.17L379.4 816.17L324.09 831.52C322.17 832.05 320.23 832.52 318.31 833.1C315.72 833.84 315.41 833.65 315.41 830.96C315.41 811.807 315.41 792.66 315.41 773.52C315.41 766.44 315.41 759.357 315.41 752.27C315.98 752.07 316.55 751.83 317.14 751.66L469.91 709.28C476.54 707.45 476.42 707.47 476.97 700.67C478.16 686.04 479.5 671.43 480.8 656.81C482.133 641.763 483.483 626.71 484.85 611.65C486.13 597.303 487.403 582.947 488.67 568.58C490.003 553.62 491.337 538.656 492.67 523.69C493.79 511.163 494.903 498.633 496.01 486.1C497.343 471.4 498.677 456.696 500.01 441.99C501.31 427.46 502.57 412.93 503.87 398.4C505.29 381.66 506.757 364.86 508.27 348C509.42 335.21 510.55 322.42 511.74 309.63C512.03 306.46 512.12 306.47 509 306.47H318.39C317.34 306.43 316.3 306.38 315.25 306.35Z" fill="#2965F0"/>
<path d="M315.25 306.35C316.3 306.35 317.34 306.43 318.39 306.43H509C512.12 306.43 512 306.43 511.74 309.59C510.55 322.38 509.42 335.17 508.27 347.96C506.75 364.84 505.237 381.72 503.73 398.6C502.43 413.13 501.17 427.66 499.87 442.19C498.537 456.89 497.203 471.593 495.87 486.3C494.75 498.827 493.637 511.357 492.53 523.89C491.197 538.85 489.863 553.813 488.53 568.78C487.25 583.14 485.977 597.497 484.71 611.85C483.377 626.91 482.027 641.963 480.66 657.01C479.36 671.63 478.02 686.24 476.83 700.87C476.28 707.67 476.4 707.65 469.77 709.48L317 751.87C316.41 752.04 315.84 752.28 315.27 752.48L314.76 752.32V670.59L315.38 670.3C316.07 670.15 316.76 670.02 317.43 669.84L397.21 648.32C402.35 646.93 402.48 646.93 403.02 641.22C404.6 624.53 406.08 607.84 407.57 591.14C408.88 576.53 410.09 561.91 411.52 547.31C411.75 544.98 411.27 544.58 409.07 544.59C380.597 544.657 352.12 544.657 323.64 544.59C320.85 544.59 318.06 544.65 315.27 544.69L314.76 544.5V466L315.26 465.79C315.517 465.846 315.778 465.883 316.04 465.9C349.58 465.9 383.117 465.917 416.65 465.95C418.36 465.95 418.6 465.28 418.72 463.84C419.57 453.66 420.51 443.49 421.41 433.31C422.76 418.31 424.05 403.22 425.48 388.19C425.71 385.8 425.16 385.14 422.68 385.14C387.74 385.227 352.803 385.25 317.87 385.21C317 385.21 316.13 385.28 315.26 385.32L314.76 385.11C314.76 358.917 314.76 332.73 314.76 306.55L315.25 306.35Z" fill="#FEFEFE"/>
<path d="M314.74 670.59V752.32C307.58 750.79 300.6 748.57 293.55 746.62C247.657 733.887 201.77 721.153 155.89 708.42C154.01 707.9 153.3 707.21 153.12 705.17C151.72 688.45 150.12 671.76 148.66 655.05C147.327 640.343 146.037 625.637 144.79 610.93C144.05 602.57 143.37 594.22 142.53 585.87C142.37 584.25 142.84 583.98 144.29 583.98C169.383 583.98 194.47 583.98 219.55 583.98C221.05 583.98 221.43 584.52 221.55 585.9C222.49 596.9 223.55 607.83 224.55 618.79C225.32 627.41 226.09 636.02 226.76 644.64C226.9 646.47 227.76 647.07 229.41 647.52C257.85 655.173 286.293 662.863 314.74 670.59Z" fill="#EAEAEA"/>
<path d="M314.75 306.52C314.75 332.707 314.75 358.893 314.75 385.08C313.88 385.08 313.01 385.16 312.14 385.16C250.707 385.16 189.283 385.19 127.87 385.25C125.07 385.25 124.61 384.25 124.4 381.9C122.4 359.03 120.27 336.16 118.2 313.28C118.1 312.28 118.08 311.19 118 310.14C117.71 306.44 117.71 306.44 121.58 306.44H311.34C312.48 306.44 313.61 306.49 314.75 306.52Z" fill="#EAEAEA"/>
<path d="M314.74 466V544.58C313.87 544.58 313 544.66 312.13 544.66C255.423 544.66 198.71 544.684 141.99 544.73C139.38 544.73 138.68 544.05 138.47 541.47C137.08 524.47 135.47 507.54 133.96 490.58C133.27 482.93 132.62 475.27 131.89 467.58C131.77 466.34 132 465.73 133.34 465.87C133.673 465.888 134.007 465.888 134.34 465.87H312.65C313.35 465.89 314 466 314.74 466Z" fill="#EAEAEA"/>
<path d="M315.25 544.74C318.04 544.74 320.83 544.64 323.62 544.64C352.1 544.64 380.577 544.64 409.05 544.64C411.25 544.64 411.73 545.03 411.5 547.36C410.07 561.96 408.86 576.58 407.55 591.19C406.06 607.89 404.55 624.58 403 641.27C402.46 646.98 402.33 646.98 397.19 648.37L317.41 669.89C316.74 670.07 316.05 670.2 315.36 670.35C315.36 669.04 315.26 667.73 315.26 666.42C315.253 625.847 315.25 585.287 315.25 544.74Z" fill="#2965F0"/>
<path d="M315.24 385.29C316.11 385.29 316.98 385.18 317.85 385.18C352.79 385.18 387.727 385.157 422.66 385.11C425.14 385.11 425.66 385.77 425.46 388.16C424.03 403.16 422.74 418.24 421.39 433.28C420.49 443.46 419.55 453.63 418.7 463.81C418.58 465.25 418.34 465.93 416.63 465.92C383.103 465.873 349.567 465.857 316.02 465.87C315.758 465.853 315.497 465.816 315.24 465.76V385.29Z" fill="#2965F0"/>
<path d="M310.81 0.580115C325.75 0.580115 340.7 0.580115 355.64 0.580115C357.7 0.580115 358.43 0.890115 358.4 3.19012C358.25 13.1901 358.28 23.1201 358.4 33.0901C358.4 34.9801 357.87 35.3401 356.08 35.3401C339.39 35.2701 322.7 35.3401 306.01 35.2401C303.6 35.2401 302.64 35.6301 302.82 38.2901C303.08 42.2101 302.88 42.2201 306.93 42.2201C323.27 42.2201 339.61 42.2201 355.93 42.1701C357.93 42.1701 358.39 42.6601 358.38 44.6301C358.307 69.6301 358.307 94.6301 358.38 119.63C358.38 121.55 357.98 122.11 355.97 122.11C325.817 122.043 295.67 122.043 265.53 122.11C263.46 122.11 262.91 121.58 262.93 119.51C263.043 109.017 263.043 98.5268 262.93 88.0401C262.93 86.1101 263.36 85.5701 265.36 85.5801C282.22 85.6701 299.09 85.5801 315.95 85.6801C317.95 85.6801 318.59 85.2301 318.52 83.1401C318.35 78.7501 318.52 78.7401 314.19 78.7401C297.94 78.7401 281.68 78.7401 265.43 78.7401C263.52 78.7401 262.92 78.3401 262.93 76.3201C263.01 51.8401 263.01 27.3634 262.93 2.89012C262.93 0.760115 263.67 0.540115 265.47 0.550115C280.58 0.610115 295.7 0.580115 310.81 0.580115Z" fill="black"/>
<path d="M425.41 0.580062C440.41 0.580062 455.47 0.580062 470.5 0.580062C472.28 0.580062 472.83 0.940062 472.81 2.83006C472.71 12.8801 472.69 22.9301 472.81 32.9801C472.81 35.0901 472.1 35.3301 470.3 35.3201C453.52 35.2601 436.74 35.3201 419.96 35.2301C417.72 35.2301 417.2 35.8301 417.29 37.9701C417.46 42.2001 417.29 42.2101 421.54 42.2101C437.8 42.2101 454.05 42.2101 470.3 42.1601C472.24 42.1601 472.8 42.6001 472.79 44.6001C472.723 69.6001 472.723 94.6001 472.79 119.6C472.79 121.5 472.41 122.09 470.38 122.09C440.233 122.01 410.087 122.01 379.94 122.09C377.79 122.09 377.39 121.42 377.41 119.45C377.497 108.963 377.497 98.4734 377.41 87.9801C377.41 85.9801 377.88 85.5501 379.84 85.5601C396.62 85.6501 413.39 85.5601 430.17 85.6601C432.22 85.6601 433.05 85.3701 432.94 83.0501C432.72 78.7301 432.88 78.7201 428.52 78.7201C412.35 78.7201 396.18 78.7201 380.02 78.7201C378.02 78.7201 377.41 78.2401 377.41 76.1501C377.49 51.7634 377.49 27.3767 377.41 2.99006C377.41 0.770062 378.18 0.520062 380.06 0.530062C395.17 0.610062 410.29 0.580062 425.41 0.580062Z" fill="black"/>
<path d="M148.55 60.3599C148.55 41.3599 148.55 22.2499 148.49 3.19995C148.49 0.969947 149.08 0.519947 151.22 0.529947C181.28 0.596613 211.337 0.596613 241.39 0.529947C243.32 0.529947 244 0.849946 244 2.99995C243.873 14.7133 243.873 26.4233 244 38.1299C244 40.2099 243.37 40.4899 241.52 40.4899C224.66 40.4199 207.79 40.4899 190.93 40.3899C188.84 40.3899 188.36 40.9599 188.38 42.9799C188.48 54.6133 188.48 66.2399 188.38 77.8599C188.38 80.0099 189.04 80.3799 191 80.3699C207.78 80.2999 224.56 80.3699 241.33 80.2699C243.55 80.2699 244.03 80.8399 244.01 82.9899C243.89 94.6099 243.89 106.233 244.01 117.86C244.01 119.86 243.54 120.28 241.59 120.27C211.437 120.197 181.29 120.197 151.15 120.27C148.86 120.27 148.51 119.57 148.52 117.5C148.58 98.4699 148.55 79.4199 148.55 60.3599Z" fill="black"/>
</svg>
