<svg width="800" height="800" viewBox="0 0 800 800" fill="none" xmlns="http://www.w3.org/2000/svg">
<g clip-path="url(#clip0_1929_86)">
<path d="M798.75 799.89C534.123 799.89 269.493 799.927 4.86 800C0.81 800 0 799.19 0 795.14C0.12 530.473 0.156667 265.807 0.11 1.14014H790.53C792.36 1.14014 794.19 1.14014 796.02 1.14014C797.85 1.14014 798.79 1.97014 798.78 3.84014C798.77 5.71014 798.78 7.50014 798.78 9.34014V792.39C798.81 794.89 798.77 797.39 798.75 799.89ZM612.85 736.55C620.784 736.493 628.707 735.932 636.57 734.87C642.32 734.01 648.08 733.01 653.74 731.68C700.74 720.68 730.24 689.94 735.24 644.68C739.85 602.97 726.74 568.19 691.33 543.39C675.41 532.24 658.15 523.67 640.45 515.86C626.29 509.61 611.81 504.06 598.08 496.86C591.57 493.44 585.33 489.62 580.25 484.18C563.25 465.95 571.61 435.88 595.81 430.05C614.66 425.5 631.49 429.69 644.81 444.71C648.327 448.716 651.423 453.072 654.05 457.71C655.14 459.6 656.05 460.4 658.28 458.96C676.033 447.46 693.827 436.03 711.66 424.67C713.73 423.35 713.74 422.22 712.58 420.27C697.92 395.64 678.25 377.03 650.17 368.77C626.736 361.721 601.882 360.822 578 366.16C539.86 374.66 511.7 395.94 501.65 434.79C491.44 474.26 498.83 510.56 529.3 539.99C541.03 551.33 554.81 559.83 569.47 566.76C584.37 573.76 599.58 580.17 614.63 586.89C624.97 591.5 635.35 596.06 644.63 602.7C651.71 607.77 657.3 613.99 659.71 622.61C664.71 640.7 656.4 657.29 637.84 664.87C620.31 672.03 602.33 671.61 584.46 666.28C563.83 660.13 549.86 645.68 538.65 628.14C536.82 625.26 535.51 624.81 532.48 626.6C514.7 637.093 496.83 647.427 478.87 657.6C475.81 659.34 475.49 660.77 477.16 663.75C487.254 682.26 501.563 698.135 518.93 710.09C546.74 729.17 578 736.2 612.85 736.55ZM434.47 513.63C434.47 461.23 434.4 417.25 434.57 373.27C434.57 368.6 433.63 367.02 428.63 367.1C407.81 367.4 386.99 367.2 366.17 367.24C358.89 367.24 359.46 366.24 359.46 373.87C359.46 455.67 359.46 537.467 359.46 619.26C359.46 627.77 359.19 636.26 356.91 644.54C354.31 653.94 349.44 661.54 340.22 665.8C331.103 669.911 320.903 670.971 311.135 668.824C301.367 666.677 292.552 661.436 286 653.88C280.999 647.844 276.642 641.302 273 634.36C271.55 631.72 270.36 631.21 267.64 632.88C249.64 643.94 231.547 654.89 213.36 665.73C210.59 667.39 210.18 668.73 211.66 671.62C225.88 699 246.61 719 276 729C306.45 739.34 337.3 739.35 367.85 729.68C396.28 720.68 415.85 701.76 426.29 673.68C430.966 661.346 433.571 648.324 434 635.14C435.18 591.84 434.08 548.52 434.47 513.63Z" fill="#FFE11A"/>
<path d="M798.75 799.89C798.75 797.39 798.81 794.89 798.81 792.39V9.32C798.81 7.48 798.81 5.65 798.81 3.82C798.81 1.99 797.89 1.1 796.05 1.12C794.21 1.14 792.39 1.12 790.56 1.12H0.110002C0.330002 0.82 -0.389998 0.12 0.610002 0.12C1.94 0.17 3.28 0.12 4.61 0.12C268.15 0.1 531.697 0.06 795.25 0C798.99 0 799.84 0.84 799.84 4.59C799.74 268.19 799.687 531.79 799.68 795.39C799.68 796.85 800.84 798.78 798.75 799.89Z" fill="#FAF4CC"/>
<path d="M612.85 736.55C578 736.2 546.74 729.17 518.93 710.13C501.563 698.175 487.254 682.3 477.16 663.79C475.49 660.79 475.81 659.38 478.87 657.64C496.83 647.44 514.7 637.107 532.48 626.64C535.48 624.85 536.82 625.3 538.65 628.18C549.86 645.72 563.83 660.18 584.46 666.32C602.33 671.65 620.31 672.07 637.84 664.91C656.4 657.33 664.76 640.74 659.71 622.65C657.3 614.03 651.71 607.81 644.63 602.74C635.36 596.1 624.98 591.54 614.63 586.93C599.63 580.21 584.37 573.84 569.47 566.8C554.82 559.83 541 551.33 529.31 540C498.84 510.57 491.45 474.27 501.66 434.8C511.66 395.95 539.87 374.67 578.01 366.17C601.883 360.841 626.726 361.743 650.15 368.79C678.23 377.05 697.9 395.66 712.56 420.29C713.72 422.29 713.71 423.37 711.64 424.69C693.807 436.023 676.013 447.453 658.26 458.98C656.04 460.42 655.12 459.62 654.03 457.73C651.403 453.092 648.307 448.736 644.79 444.73C631.49 429.73 614.66 425.52 595.79 430.07C571.59 435.9 563.18 465.97 580.23 484.2C585.31 489.64 591.55 493.46 598.06 496.88C611.79 504.09 626.27 509.64 640.43 515.88C658.13 523.69 675.43 532.26 691.31 543.41C726.72 568.21 739.83 602.99 735.22 644.7C730.22 689.95 700.72 720.7 653.72 731.7C648.06 733.03 642.3 734.03 636.55 734.89C628.693 735.944 620.777 736.499 612.85 736.55V736.55Z" fill="#333430"/>
<path d="M434.47 513.63C434.08 548.52 435.18 591.84 433.97 635.14C433.567 648.33 430.985 661.362 426.33 673.71C415.87 701.71 396.33 720.71 367.89 729.71C337.34 739.38 306.49 739.37 276.04 729.03C246.61 719.03 225.88 699.03 211.73 671.65C210.25 668.81 210.66 667.42 213.43 665.76C231.597 654.926 249.69 643.976 267.71 632.91C270.43 631.24 271.62 631.75 273.07 634.39C276.712 641.331 281.069 647.874 286.07 653.91C292.619 661.455 301.425 666.689 311.182 668.836C320.939 670.983 331.129 669.929 340.24 665.83C349.46 661.61 354.33 653.97 356.93 644.57C359.21 636.29 359.48 627.8 359.48 619.29C359.48 537.503 359.48 455.706 359.48 373.9C359.48 366.23 358.91 367.28 366.19 367.27C387.01 367.27 407.83 367.43 428.65 367.13C433.65 367.05 434.65 368.63 434.59 373.3C434.4 417.25 434.47 461.23 434.47 513.63Z" fill="#333430"/>
</g>
<defs>
<clipPath id="clip0_1929_86">
<rect width="800" height="800" fill="white"/>
</clipPath>
</defs>
</svg>
